<svg width="82" height="71" viewBox="0 0 82 71" fill="none" xmlns="http://www.w3.org/2000/svg">
<path opacity="0.498415" fill-rule="evenodd" clip-rule="evenodd" d="M66.3485 44.1278H15.651C7.00757 44.1278 0 37.1256 0 28.4878C0 19.8505 7.00757 12.8488 15.651 12.8488H66.3485C74.9924 12.8488 82 19.8505 82 28.4878C82 37.1256 74.9924 44.1278 66.3485 44.1278" fill="white"/>
<path d="M46.5226 69H32.8635L48.4426 63.0506H30.944L50.6714 57.0192" stroke="white" stroke-width="3.16365" stroke-linecap="round" stroke-linejoin="round"/>
<path fill-rule="evenodd" clip-rule="evenodd" d="M53.3412 54.7191C54.1665 49.8882 58.3903 44.7871 60.3046 42.6804C61.2054 41.6896 62.0287 40.6307 62.7053 39.4753C64.9418 35.6577 66.1904 31.1912 66.0996 26.4269C65.8513 13.3242 55.2525 2.51564 42.1463 2.01845C27.9362 1.47923 16.2458 12.8305 16.2458 26.9103C16.2458 31.4029 17.4364 35.6178 19.5185 39.2575C20.2449 40.5266 21.1462 41.685 22.1264 42.7701C24.0767 44.9286 28.1953 49.9553 29.0088 54.7191C29.1658 55.6351 29.9373 56.3158 30.8668 56.3158H51.4832C52.4127 56.3158 53.1842 55.6351 53.3412 54.7191Z" stroke="white" stroke-width="3.16365" stroke-linecap="round" stroke-linejoin="round"/>
<mask id="mask0" mask-type="alpha" maskUnits="userSpaceOnUse" x="16" y="2" width="51" height="55">
<path fill-rule="evenodd" clip-rule="evenodd" d="M53.3412 54.7191C54.1665 49.8882 58.3903 44.7871 60.3046 42.6804C61.2054 41.6896 62.0287 40.6307 62.7053 39.4753C64.9418 35.6577 66.1904 31.1912 66.0996 26.4269C65.8513 13.3242 55.2525 2.51564 42.1463 2.01845C27.9362 1.47923 16.2458 12.8305 16.2458 26.9103C16.2458 31.4029 17.4364 35.6178 19.5185 39.2575C20.2449 40.5266 21.1462 41.685 22.1264 42.7701C24.0767 44.9286 28.1953 49.9553 29.0088 54.7191C29.1658 55.6351 29.9373 56.3158 30.8668 56.3158H51.4832C52.4127 56.3158 53.1842 55.6351 53.3412 54.7191Z" fill="white"/>
</mask>
<g mask="url(#mask0)">
<path fill-rule="evenodd" clip-rule="evenodd" d="M42.529 56.2354V34.5359C42.529 33.6858 41.8405 32.9968 40.9912 32.9968C40.142 32.9968 39.4535 33.6858 39.4535 34.5359V56.2354C39.4535 57.0854 40.142 57.7745 40.9912 57.7745C41.8405 57.7745 42.529 57.0854 42.529 56.2354Z" fill="white"/>
<path fill-rule="evenodd" clip-rule="evenodd" d="M35.5847 27.7389C35.5847 24.6512 38.09 22.1479 41.1801 22.1479C44.2712 22.1479 46.776 24.6512 46.776 27.7389C46.776 30.8267 44.2712 33.3305 41.1801 33.3305C38.09 33.3305 35.5847 30.8267 35.5847 27.7389Z" stroke="white" stroke-width="3.16365" stroke-linecap="round" stroke-linejoin="round"/>
</g>
</svg>
